<?xml version="1.0" encoding="iso-8859-1"?>
<!-- Uploaded to: SVG Repo, www.svgrepo.com, Generator: SVG Repo Mixer Tools -->
<svg fill="#ffffff" height="800px" width="800px" version="1.1" id="Layer_1" xmlns="http://www.w3.org/2000/svg" xmlns:xlink="http://www.w3.org/1999/xlink" 
	 viewBox="0 0 512.001 512.001" xml:space="preserve">
<g>
	<g>
		<path d="M495.99,121.797H171.298c-8.842,0-16.01,7.168-16.01,16.01v157.57h-10.332V140.375c0-8.842-7.168-16.01-16.01-16.01
			H95.579c-29.375,0-53.748,21.813-57.778,50.091C15.716,182.941,0,204.375,0,229.414v117.53c0,8.842,7.168,16.01,16.01,16.01H40.93
			c9.019,16.234,26.34,27.249,46.192,27.249c20.144,0,37.685-11.341,46.588-27.97c6.516-2.028,11.248-8.107,11.248-15.29v-19.546
			h10.332v19.546c0,8.842,7.168,16.01,16.01,16.01h44.496c9.019,16.234,26.34,27.249,46.192,27.249s37.173-11.015,46.192-27.249
			h65.686c9.019,16.234,26.34,27.249,46.192,27.249s37.172-11.015,46.192-27.249h29.744c8.842,0,16.01-7.168,16.01-16.01V137.808
			C512,128.966,504.833,121.797,495.99,121.797z M87.121,358.182c-11.464,0-20.79-9.326-20.79-20.79s9.327-20.79,20.79-20.79
			s20.791,9.327,20.791,20.79S98.586,358.182,87.121,358.182z M112.936,291.348c-7.639-4.299-16.443-6.765-25.815-6.765
			c-26.931,0-49.203,20.269-52.4,46.351h-2.7V260.42c1.515,0.475,3.125,0.733,4.797,0.733h24.711c8.842,0,16.01-7.168,16.01-16.01
			s-7.168-16.01-16.01-16.01H36.817c-1.671,0-3.282,0.258-4.797,0.733v-0.453c0-14.792,12.034-26.828,26.828-26.828h54.088V291.348z
			 M112.936,170.566H72.217c4.4-8.42,13.221-14.181,23.362-14.181h17.357V170.566z M187.308,153.818h292.671v16.748H187.308V153.818
			z M261.985,358.183c-11.464,0-20.79-9.327-20.79-20.79s9.325-20.79,20.79-20.79s20.791,9.325,20.791,20.79
			C282.776,348.857,273.45,358.183,261.985,358.183z M420.054,358.183c-11.464,0-20.791-9.327-20.791-20.79
			s9.326-20.79,20.791-20.79s20.79,9.325,20.79,20.79C440.844,348.857,431.519,358.183,420.054,358.183z M479.98,330.934h-7.524
			v-0.001c-3.198-26.082-25.469-46.351-52.4-46.351c-26.931,0-49.204,20.269-52.402,46.351h-53.267
			c-3.198-26.082-25.47-46.351-52.401-46.351s-49.203,20.269-52.4,46.351h-22.277V202.586H479.98V330.934z"/>
	</g>
</g>
</svg>