<?xml version="1.0" encoding="iso-8859-1"?>
<!-- Uploaded to: SVG Repo, www.svgrepo.com, Generator: SVG Repo Mixer Tools -->
<svg fill="#ffffff" height="800px" width="800px" version="1.1" id="Layer_1" xmlns="http://www.w3.org/2000/svg" xmlns:xlink="http://www.w3.org/1999/xlink" 
	 viewBox="0 0 511.998 511.998" xml:space="preserve">
<g>
	<g>
		<path d="M439.868,217.109h-42.769l-35.291-77.501c-2.839-6.234-9.381-9.916-16.192-9.09l-149.29,18.067
			c-58.788,7.114-112.086,38.894-146.299,87.211l-25.299,31.831c-2.21,2.781-3.414,6.228-3.414,9.779v10.564h-5.597
			C7.037,287.97,0,295.007,0,303.687c0,8.68,7.037,15.717,15.717,15.717h5.597v14.317c0,8.68,7.037,15.717,15.717,15.717h40.925
			c7.769,18.849,26.331,32.156,47.95,32.156s40.182-13.306,47.949-32.156h188.583c7.769,18.849,26.331,32.156,47.949,32.156
			c21.619,0,40.182-13.306,47.95-32.156h37.942c8.68,0,15.717-7.037,15.717-15.717V289.24
			C512,249.467,479.641,217.109,439.868,217.109z M337.968,163.107l24.59,54.002H226.255v-37.548c0-0.992-0.103-1.96-0.279-2.901
			L337.968,163.107z M194.82,180.523v36.586h-84.177C134.856,197.962,163.852,185.217,194.82,180.523z M125.907,350.161
			c-11.255,0-20.41-9.156-20.41-20.409c0-11.254,9.156-20.409,20.41-20.409s20.409,9.156,20.409,20.409
			C146.317,341.005,137.162,350.161,125.907,350.161z M410.39,350.161c-11.255,0-20.409-9.156-20.409-20.409
			c0-11.254,9.155-20.409,20.409-20.409s20.411,9.156,20.411,20.409C430.8,341.005,421.644,350.161,410.39,350.161z
			 M480.566,318.005h-0.001h-19.69c-5.338-22.945-25.94-40.098-50.486-40.098c-24.546,0-45.147,17.153-50.485,40.098H176.392
			c-5.338-22.945-25.939-40.098-50.485-40.098s-45.148,17.153-50.486,40.098H52.749v-35.114l22.161-27.884
			c0.189-0.237,0.37-0.479,0.544-0.725c1.372-1.945,2.777-3.857,4.213-5.739h306.981c0.232,0.005,0.463,0.005,0.695,0h52.525
			c22.44,0,40.697,18.256,40.697,40.697V318.005z"/>
	</g>
</g>
<g>
	<g>
		<path d="M281.091,263.251h-20.431c-8.68,0-15.717,7.037-15.717,15.717c0,8.68,7.037,15.717,15.717,15.717h20.431
			c8.68,0,15.717-7.037,15.717-15.717C296.808,270.288,289.771,263.251,281.091,263.251z"/>
	</g>
</g>
</svg>