<?xml version="1.0" encoding="iso-8859-1"?>
<!-- Uploaded to: SVG Repo, www.svgrepo.com, Generator: SVG Repo Mixer Tools -->
<svg fill="#ffffff" height="800px" width="800px" version="1.1" id="Layer_1" xmlns="http://www.w3.org/2000/svg" xmlns:xlink="http://www.w3.org/1999/xlink" 
	 viewBox="0 0 512 512" xml:space="preserve">
<g>
	<g>
		<path d="M457.097,210.794H337.131l-41.864-62.606c-14.787-22.114-39.497-35.316-66.1-35.316H110.009
			C49.349,112.872,0,162.221,0,222.88v103.095c0,9.531,7.727,17.259,17.259,17.259h33.236c0.556,30.914,25.858,55.895,56.902,55.895
			s56.347-24.981,56.902-55.895h198.577c0.556,30.914,25.858,55.895,56.902,55.895s56.347-24.981,56.903-55.895h18.062
			c9.531,0,17.259-7.727,17.259-17.259v-60.278C512,235.423,487.37,210.794,457.097,210.794z M222.739,147.389h6.428
			c15.055,0,29.039,7.471,37.406,19.986l29.034,43.419h-72.868V147.389z M110.009,147.389h78.213v63.405H35.498
			C41.3,174.894,72.497,147.389,110.009,147.389z M107.396,364.611c-12.357,0-22.411-10.054-22.411-22.411
			s10.054-22.411,22.411-22.411s22.411,10.054,22.411,22.411S119.754,364.611,107.396,364.611z M419.778,364.611
			c-12.358,0-22.411-10.054-22.411-22.411c0-12.357,10.053-22.411,22.411-22.411c12.358,0,22.412,10.054,22.412,22.411
			C442.19,354.557,432.136,364.611,419.778,364.611z M477.483,308.716h-11.706c-10.362-14.196-27.118-23.444-45.999-23.444
			s-35.637,9.248-45.999,23.444H153.395c-10.362-14.196-27.117-23.444-45.999-23.444s-35.637,9.248-45.999,23.444h-26.88v-63.405
			H327.91h129.187c11.241,0,20.386,9.145,20.386,20.386V308.716z"/>
	</g>
</g>
<g>
	<g>
		<path d="M272.045,258.822h-22.436c-9.531,0-17.259,7.727-17.259,17.259s7.727,17.259,17.259,17.259h22.436
			c9.531,0,17.259-7.727,17.259-17.259S281.576,258.822,272.045,258.822z"/>
	</g>
</g>
</svg>